# xmcd CD database file
#
# Track frame offsets:
#	150
#	21307
#	35350
#	51932
#	66925
#	90252
#	106510
#	126375
#	136830
#	153885
#	175587
#	196942
#	213342
#	230405
#	249545
#	268152
#	283482
#	299240
#
# Disc length: 4237 seconds
#
# Revision: 0
# Processed by: cddbd v1.4PL0 Copyright (c) Steve Scherf et al.
# Submitted via: CDex 1.50beta10
#
DISCID=0a108b12
DTITLE=Stephane Grappelli - The Best Of
DYEAR=1900
DGENRE=Jazz
TTITLE0=Autumn Leaves
TTITLE1=Jealousy
TTITLE2=Tea For Two
TTITLE3=These Foolish
TTITLE4=A Nightingale Sang In Berkeley Square
TTITLE5=April In Paris
TTITLE6=Summertime
TTITLE7=Fascinating Rhythm
TTITLE8=A Foggy Day
TTITLE9=They Can't T Take That Away
TTITLE10=The Man I Love
TTITLE11=Lady Be Good
TTITLE12=Cheek To Cheek
TTITLE13=All The Things You Are
TTITLE14=Night And Day
TTITLE15=A Fine Romance
TTITLE16=I've Got My Love To Keep Me Warm
TTITLE17=My Funny Valentine
EXTD=
EXTT0=
EXTT1=
EXTT2=
EXTT3=
EXTT4=
EXTT5=
EXTT6=
EXTT7=
EXTT8=
EXTT9=
EXTT10=
EXTT11=
EXTT12=
EXTT13=
EXTT14=
EXTT15=
EXTT16=
EXTT17=
PLAYORDER=
